{"title":"Size Zero 2015 Telugu Movies HD Cam XviD New Source +Sample ☻rDX","uid":12871717,"size":741096795,"categoryP":"video","categoryS":"movies","magnet":"?xt=urn:btih:f8a8d6941bb58e79a33266878c16b881193826ba&amp;dn=Size+Zero+2015+Telugu+Movies+HD+Cam+XviD+New+Source+%2BSample+%E2%98%BBrDX&amp;tr=udp%3A%2F%2Ftracker.leechers-paradise.org%3A6969&amp;tr=udp%3A%2F%2Fzer0day.ch%3A1337&amp;tr=udp%3A%2F%2Fopen.demonii.com%3A1337&amp;tr=udp%3A%2F%2Ftracker.coppersurfer.tk%3A6969&amp;tr=udp%3A%2F%2Fexodus.desync.com%3A6969","seeders":2,"leechers":1,"uploader":"basicssom","files":2,"time":1448888924,"description":"----------------------------------------------------------------\r\nSize Zero 2015 Telugu Movies HD Cam XviD AAC New Source with Sample ~ ☻rDX☻\r\n\r\nSCREEN SHOTS &amp; POSTER:\r\n  \nhttp://doctorhosts.com/2015/11/SizeZero/11.html  \nhttp://doctorhosts.com/2015/11/SizeZero/1.html  \nhttp://doctorhosts.com/2015/11/SizeZero/2.html  \nhttp://doctorhosts.com/2015/11/SizeZero/3.html  \nhttp://doctorhosts.com/2015/11/SizeZero/4.html  \nhttp://doctorhosts.com/2015/11/SizeZero/5.html  \nhttp://doctorhosts.com/2015/11/SizeZero/6.html  \nhttp://doctorhosts.com/2015/11/SizeZero/7.html  \nhttp://doctorhosts.com/2015/11/SizeZero/8.html  \nhttp://doctorhosts.com/2015/11/SizeZero/9.html  \nhttp://doctorhosts.com/2015/11/SizeZero/10.html\r\n\r\nFormat                                   : Matroska\r\nFormat version                           : Version 4 / Version 2\r\nFile size                                : 696 MiB\r\nDuration                                 : 2h 5mn\r\nOverall bit rate                         : 776 Kbps\r\nMovie name                               : Size Zero 2015 Telugu Movies HD Cam XviD AAC New Source ~ rDX ~\r\n\r\nVideo\r\nID                                       : 1\r\nFormat                                   : AVC\r\nFormat/Info                              : Advanced Video Codec\r\nFormat profile                           :   \r\nFormat settings, CABAC                   : Yes\r\nFormat settings, ReFrames                : 4 frames\r\nCodec ID                                 : V_MPEG4/ISO/AVC\r\nDuration                                 : 2h 5mn\r\nBit rate                                 : 711 Kbps\r\nWidth                                    : 640 pixels\r\nHeight                                   : 272 pixels\r\nDisplay aspect ratio                     : 2.35:1\r\nFrame rate mode                          : Constant\r\nFrame rate                               : 29.970 fps\r\nColor space                              : YUV\r\nChroma subsampling                       : 4:2:0\r\nBit depth                                : 8 bits\r\nScan type                                : Progressive\r\nBits/(Pixel*Frame)                       : 0.136\r\nStream size                              : 625 MiB (90%)\r\nTitle                                    : ~ rDX ~\r\nWriting library                          : XviD\r\nDefault                                  : Yes\r\nForced                                   : No\r\n\r\nAudio\r\nID                                       : 2\r\nFormat                                   : AC-3\r\nFormat/Info                              : Audio Coding 3\r\nMode extension                           : CM (complete main)\r\nFormat settings, Endianness              : Big\r\nCodec ID                                 : A_AC3\r\nDuration                                 : 2h 5mn\r\nBit rate mode                            : Constant\r\nBit rate                                 : 64.0 Kbps\r\nChannel(s)                               : 2 channels\r\nChannel positions                        : Front: L R\r\nSampling rate                            : 48.0 KHz\r\nBit depth                                : 16 bits\r\nCompression mode                         : Lossy\r\nStream size                              : 57.4 MiB (8%)\r\nTitle                                    : ~ rDX ~\r\nDefault                                  : Yes\r\nForced                                   : No\r\n\r\nIMDB                                      \nhttp://www.imdb.com/title/tt4959326/","torrent":{"xt":"urn:btih:f8a8d6941bb58e79a33266878c16b881193826ba","amp;dn":"Size+Zero+2015+Telugu+Movies+HD+Cam+XviD+New+Source+%2BSample+%E2%98%BBrDX","amp;tr":["udp%3A%2F%2Ftracker.leechers-paradise.org%3A6969","udp%3A%2F%2Fzer0day.ch%3A1337","udp%3A%2F%2Fopen.demonii.com%3A1337","udp%3A%2F%2Ftracker.coppersurfer.tk%3A6969","udp%3A%2F%2Fexodus.desync.com%3A6969"],"infoHash":"f8a8d6941bb58e79a33266878c16b881193826ba","infoHashBuffer":{"type":"Buffer","data":[248,168,214,148,27,181,142,121,163,50,102,135,140,22,184,129,25,56,38,186]},"announce":[],"urlList":[]}}